<svg xml:space="preserve" enable-background="new 0 0 99.999 100" viewBox="0 0 99.999 100"
 height="100px" width="100px" y="0px" x="0px" xmlns:xlink="http://www.w3.org/1999/xlink"
 xmlns="http://www.w3.org/2000/svg" id="Layer_1" version="1.1">
<path d="M15.673,13.641C-4.403,32.595-5.313,64.235,13.641,84.312c0.333,0.354,0.672,0.702,1.016,1.044
	c19.523,19.524,51.178,19.524,70.699,0c19.524-19.521,19.524-51.175,0-70.699C66.231-4.484,35.349-4.935,15.673,13.641z
	 M25.262,35.16l9.898-9.898l14.847,14.847l14.847-14.847l9.898,9.898L59.905,50.012l14.848,14.842l-9.898,9.898L50.007,59.905
	L35.16,74.752l-9.898-9.898l14.847-14.842L25.262,35.16z" fill="#B94A48"/>
</svg>