<svg xml:space="preserve" enable-background="new 0 0 100 100" viewBox="0 0 100 100" height="100px" width="100px" y="0px" x="0px" version="1.1" xmlns:xlink="http://www.w3.org/1999/xlink" xmlns="http://www.w3.org/2000/svg">
<g id="Captions">
</g>
<g id="Your_Icon">
	<path d="M94.365,41.26L52.262,12.395c-1.363-0.936-3.16-0.936-4.523,0L5.636,41.26c-1.822,1.249-2.286,3.738-1.038,5.561   c0.775,1.131,2.029,1.738,3.303,1.738c0.779,0,1.568-0.227,2.259-0.701l4.812-3.299l2.556-1.752v0.088l9.513-6.57   c-0.009-0.008-0.018-0.014-0.026-0.021l7.632-5.232l13.935-9.625c0.112-0.078,0.239-0.118,0.36-0.176L50,20.543l1.061,0.727   c0.118,0.057,0.242,0.095,0.354,0.171l21.621,14.823l9.439,6.472l2.66,1.823l5.227,3.584c1.752,0.854,3.906,0.334,5.041-1.322   C96.652,44.998,96.188,42.509,94.365,41.26z"/>
	<path d="M74.475,43.312v1.246v35.749H59.394V59.016c0-2.209-1.791-4-4-4H44.607c-2.209,0-4,1.791-4,4v21.292H25.526V44.559v-1.113   l-1.612,1.113l-6.388,4.412v32.553c0,3.741,3.043,6.784,6.783,6.784h51.382c3.74,0,6.783-3.043,6.783-6.784V48.797l-6.182-4.238   L74.475,43.312z"/>
</g>
</svg>
