<svg xmlns="http://www.w3.org/2000/svg" xmlns:xlink="http://www.w3.org/1999/xlink" version="1.1" id="Layer_1" x="0px" y="0px" width="100px" height="100px" viewBox="378.251 241.01 100 100" enable-background="new 378.251 241.01 100 100" xml:space="preserve">
<g>
	<path d="M423.83,305.18l-6.962,19.135c0,0,5.386,1.952,5.382,1.959c1.254,0.438,2.5-0.244,2.91-1.388c0,0,5.41-14.85,5.406-14.846   c0.436-1.188-0.18-2.466-1.352-2.9L423.83,305.18z"/>
	<path d="M442.781,276.476c0,0,5.572-15.296,5.566-15.292c0.436-1.19-0.18-2.466-1.352-2.898l-5.383-1.959l-7.113,19.542   c0,0,5.379,1.969,5.383,1.959C441.126,278.284,442.375,277.601,442.781,276.476z"/>
	<path d="M428.25,242.01c-25.607,0-46.366,21.937-46.366,48.996c0,13,2.523,24.789,17.594,30.701   c-7.42-7.639-11.026-18.889-11.026-30.701c0-23.227,17.818-42.057,39.801-42.057c21.979,0,41.25,18.83,41.25,42.057   c0,23.228-19.27,43.88-41.25,43.88c-10.635,0-24.178-5.912-18.847-19.157c1.705,5.102,4.547,7.512,6.001,8.016l6.939-19.065   c-2.642-0.976-2.124-4.065-0.574-10.262c1.057-4.101,2.719-9.04,4.994-13.715c1.623-3.281,3.471-6.382,6.264-5.369l7.078-19.555   c-3.316-0.796-16.877,0.287-27.196,27.569c-4.73,12.52-5.477,21.587-4.545,27.927c-13.592,22.688,6.704,28.99,19.888,28.729   c25.602-0.508,46.365-21.937,46.365-48.996C474.616,263.947,453.857,242.01,428.25,242.01z"/>
</g>
</svg>