<svg xml:space="preserve" enable-background="new 0 0 100 100" viewBox="0 0 100 100" height="100px" width="100px" y="0px" x="0px" xmlns:xlink="http://www.w3.org/1999/xlink" xmlns="http://www.w3.org/2000/svg" id="Layer_1" version="1.1">
<rect height="19" width="4" y="45" x="75"/>
<polygon points="21,0 21,19 25,19 25,4 75,4 75,19 79,19 79,0 "/>
<polygon points="75,45 75,96 44,96 44,77 25,77 25,45 21,45 21,80 41,100 79,100 79,45 "/>
<rect height="3" width="38" y="45" x="31"/>
<rect height="3" width="38" y="56" x="31"/>
<rect height="3" width="38" y="67" x="31"/>
<path d="M0,21v48h19V59h-9V31h80v28h-9v10h19V21H0z M97,28h-4v-4h4V28z"/>
</svg>